<?xml version="1.0" standalone="no"?>
<!DOCTYPE svg PUBLIC "-//W3C//DTD SVG 20010904//EN"
 "http://www.w3.org/TR/2001/REC-SVG-20010904/DTD/svg10.dtd">
<svg version="1.0" xmlns="http://www.w3.org/2000/svg"
 width="320.000000pt" height="295.000000pt" viewBox="0 0 320.000000 295.000000"
 preserveAspectRatio="xMidYMid meet">
<metadata>
Created by potrace 1.16, written by Peter Selinger 2001-2019
</metadata>
<g transform="translate(0.000000,295.000000) scale(0.100000,-0.100000)"
fill="#000000" stroke="none">
<path d="M2592 2518 c-69 -33 -470 -439 -748 -758 -166 -190 -434 -531 -564
-719 l-44 -63 -16 23 c-140 215 -356 445 -488 521 -90 53 -168 32 -192 -51
-16 -58 -2 -89 84 -180 164 -174 286 -362 400 -619 56 -126 77 -157 126 -182
49 -25 93 -25 145 -1 58 27 78 54 210 276 188 317 502 775 639 933 13 15 52
61 86 102 34 41 90 107 125 145 358 400 385 436 385 507 -1 37 -14 59 -47 76
-30 16 -51 14 -101 -10z"/>
</g>
</svg>
